<?xml version="1.0" encoding="UTF-8"?>
<mxfile host="app.diagrams.net">
  <diagram name="OLAP Star Schema" id="OLAP1">
    <mxGraphModel dx="1292" dy="688" grid="1" gridSize="10" guides="1" tooltips="1" connect="1" arrows="1" fold="1" page="1" pageScale="1" pageWidth="827" pageHeight="1169">
      <root>
        <mxCell id="0"/>
        <mxCell id="1" parent="0"/>

        <!-- Faktentabelle -->
        <mxCell id="2" value="Faktentabelle: Finanzkennzahlen" style="shape=rectangle;whiteSpace=wrap;fillColor=#fff2cc;" vertex="1" parent="1">
          <mxGeometry x="300" y="200" width="220" height="60" as="geometry"/>
        </mxCell>

        <!-- Dimensionen -->
        <mxCell id="3" value="Produkt" style="shape=rectangle;whiteSpace=wrap;fillColor=#dae8fc;" vertex="1" parent="1">
          <mxGeometry x="50" y="50" width="120" height="40" as="geometry"/>
        </mxCell>
        <mxCell id="4" value="Zeit" style="shape=rectangle;whiteSpace=wrap;fillColor=#dae8fc;" vertex="1" parent="1">
          <mxGeometry x="300" y="50" width="120" height="40" as="geometry"/>
        </mxCell>
        <mxCell id="5" value="Region" style="shape=rectangle;whiteSpace=wrap;fillColor=#dae8fc;" vertex="1" parent="1">
          <mxGeometry x="550" y="50" width="120" height="40" as="geometry"/>
        </mxCell>
        <mxCell id="6" value="Planungsart" style="shape=rectangle;whiteSpace=wrap;fillColor=#dae8fc;" vertex="1" parent="1">
          <mxGeometry x="300" y="350" width="120" height="40" as="geometry"/>
        </mxCell>

        <!-- Kanten -->
        <mxCell id="7" style="endArrow=block;" edge="1" parent="1" source="3" target="2">
          <mxGeometry relative="1" as="geometry"/>
        </mxCell>
        <mxCell id="8" style="endArrow=block;" edge="1" parent="1" source="4" target="2">
          <mxGeometry relative="1" as="geometry"/>
        </mxCell>
        <mxCell id="9" style="endArrow=block;" edge="1" parent="1" source="5" target="2">
          <mxGeometry relative="1" as="geometry"/>
        </mxCell>
        <mxCell id="10" style="endArrow=block;" edge="1" parent="1" source="6" target="2">
          <mxGeometry relative="1" as="geometry"/>
        </mxCell>

      </root>
    </mxGraphModel>
  </diagram>
</mxfile>
